<svg id="Layer_1" data-name="Layer 1" xmlns="http://www.w3.org/2000/svg" viewBox="0 0 236.17 154.71"><defs><style>.cls-1{fill:#ecd4af;}</style></defs><path class="cls-1" d="M153.43,193.85l1.44-2.49h-16l46-79.72,8,13.84,5.77,10,17.32,30,5.77,10,3.39,5.88H259.8l-20.71-35.88-5.77-10-17.32-30-5.77-10L197.91,74.14a15,15,0,0,0-26,0l-72,124.72a15,15,0,0,0,13,22.5h42.18a28.51,28.51,0,0,1-1.66-2.5A25.1,25.1,0,0,1,153.43,193.85Z" transform="translate(-97.91 -66.64)"/><path class="cls-1" d="M332.08,198.86l-72-124.72a15,15,0,0,0-26,0L221.77,95.48l17.32,30,8-13.84,46,79.72H201.06l5.78-10,3.39-5.87-17.32-30L172.2,181.35l-5.78,10-4.33,7.5a15,15,0,0,0,13,22.5h144a15,15,0,0,0,13-22.5Z" transform="translate(-97.91 -66.64)"/></svg>