<?xml version="1.0" encoding="UTF-8"?><svg id="a" xmlns="http://www.w3.org/2000/svg" viewBox="0 0 236.2 154.74"><defs><style>.b{fill:#fea91b;}</style></defs><path class="b" d="M55.53,127.23l1.44-2.49h-16L86.97,45.02l8,13.84,5.77,10,17.32,30,5.77,10,3.39,5.88h34.68l-20.71-35.88-5.77-10-17.32-30-5.77-10-12.32-21.34c-4.13-7.18-13.3-9.65-20.48-5.52-2.29,1.32-4.2,3.22-5.52,5.52L2.01,132.24c-4.14,7.17-1.68,16.35,5.49,20.49,2.28,1.32,4.87,2.01,7.51,2.01H57.19c-.6-.8-1.15-1.64-1.66-2.5-4.45-7.74-4.45-17.27,0-25.01Z"/><path class="b" d="M234.18,132.24L162.18,7.52c-4.13-7.18-13.3-9.65-20.48-5.52-2.29,1.32-4.2,3.22-5.52,5.52l-12.31,21.34,17.32,30,8-13.84,46,79.72H103.16l5.78-10,3.39-5.87-17.32-30-20.71,35.86-5.78,10-4.33,7.5c-4.14,7.17-1.68,16.35,5.49,20.49,2.28,1.32,4.87,2.01,7.51,2.01H221.19c8.28,0,15-6.71,15.01-14.99,0-2.64-.69-5.23-2.01-7.51h-.01Z"/></svg>