<?xml version="1.0" encoding="utf-8"?>
<!-- Generator: Adobe Illustrator 26.2.1, SVG Export Plug-In . SVG Version: 6.00 Build 0)  -->
<svg version="1.1" id="Layer_1" xmlns="http://www.w3.org/2000/svg" xmlns:xlink="http://www.w3.org/1999/xlink" x="0px" y="0px"
	 viewBox="0 0 236.2 154.7" style="enable-background:new 0 0 236.2 154.7;" xml:space="preserve">
<style type="text/css">
	.st0{fill:#F97068;}
	.st1{fill:#FEA91B;}
</style>
<path class="st0" d="M55.5,127.2l1.4-2.5H41L87,45l8,13.8l5.8,10l17.3,30l5.8,10l3.4,5.9h34.7l-20.7-35.9l-5.8-10l-17.3-30l-5.8-10
	L100,7.5C95.9,0.3,86.7-2.1,79.5,2c-2.3,1.3-4.2,3.2-5.5,5.5L2,132.2c-4.1,7.2-1.7,16.3,5.5,20.5c2.3,1.3,4.9,2,7.5,2h42.2
	c-0.6-0.8-1.2-1.6-1.7-2.5C51.1,144.5,51.1,135,55.5,127.2z"/>
<path class="st1" d="M234.2,132.2l-72-124.7C158,0.3,148.9-2.1,141.7,2c-2.3,1.3-4.2,3.2-5.5,5.5l-12.3,21.3l17.3,30l8-13.8l46,79.7
	h-92l5.8-10l3.4-5.9L95,78.9l-20.7,35.9l-5.8,10l-4.3,7.5c-4.1,7.2-1.7,16.3,5.5,20.5c2.3,1.3,4.9,2,7.5,2h144c8.3,0,15-6.7,15-15
	C236.2,137.1,235.5,134.5,234.2,132.2L234.2,132.2z"/>
</svg>
